<svg version="1.1"
	 xmlns="http://www.w3.org/2000/svg"
	 viewBox="54.985 146.65 458.458 455.434">
<g>
	<g>
		<radialGradient id="path1720_1_" cx="713.3474" cy="-217.0591" r="295.8103" gradientTransform="matrix(0.7372 0 0 -0.7327 -242.4665 214.3776)" gradientUnits="userSpaceOnUse">
			<stop  offset="0" style="stop-color:#00B9FF"/>
			<stop  offset="1" style="stop-color:#0046A9"/>
		</radialGradient>
		<path id="path1720" style="fill:url(#path1720_1_);stroke:#000000;stroke-width:0.7349;" d="
			M500.98,373.407c0,119.439-97.423,216.264-217.601,216.264c-120.177,0-217.6-96.824-217.6-216.264
			c0-119.439,97.423-216.263,217.6-216.263C403.557,157.144,500.98,253.968,500.98,373.407z"/>
		<g>
				<linearGradient id="path1736_1_" gradientUnits="userSpaceOnUse" x1="226.2883" y1="73.1118" x2="785.4103" y2="84.4665" gradientTransform="matrix(0.8631 0 0 -0.858 -171.9635 442.3607)">
				<stop  offset="0" style="stop-color:#000000;stop-opacity:0"/>
				<stop  offset="1" style="stop-color:#FFFFFF;stop-opacity:0.6701"/>
			</linearGradient>
			<path id="path1736" style="fill:none;stroke:url(#path1736_1_);stroke-width:10.9715;" d="
				M507.957,374.384c-0.01,122.735-100.19,222.224-223.761,222.214C160.64,596.588,60.48,497.106,60.47,374.384
				c-0.01-122.734,100.155-222.239,223.726-222.249s223.751,99.479,223.761,222.213
				C507.957,374.361,507.957,374.373,507.957,374.384z"/>
			<g id="g3211" transform="matrix(0.781983,0,0,0.781983,37.998569,-13.727065)">
				<path id="path1058" style="fill:#FFFFFF;stroke:#FFFFFF;stroke-width:0.961;" d="
					M482.354,662.003l27.704,27.287l0,0l0,0"/>
					<text transform="matrix(-0.9593 0.8517 -0.9223 -0.8858 481.6633 639.2178)" style="fill:#FFFFFF; font-family:'Arial-BoldMT'; font-size:15.0295;">SE</text>
			</g>
			<g id="g1104" transform="matrix(0.781983,0,0,0.781983,-139.56411,-47.793995)">
				<path id="path1044" style="fill:#0081F6;stroke:#FFFFFF;stroke-width:1.125;stroke-opacity:0.7216;" d="
					M574.493,780.6c0,16.809-13.628,30.439-30.44,30.439c-16.812,0-30.44-13.63-30.44-30.439c0-16.812,13.629-30.439,30.44-30.439
					C560.864,750.161,574.493,763.788,574.493,780.6z"/>
				<text transform="matrix(1.3848 0 0 1.2788 532.5527 791.357)" style="fill:#FFFFFF; font-family:'Arial-BoldMT'; font-size:23.1082;">S</text>
				<g>
						<text transform="matrix(1.3848 0 0 1.2788 532.5527 791.357)" style="fill:none;stroke:#FFFFFF;stroke-width:1.125; font-family:'Arial-BoldMT'; font-size:23.1082;">S</text>
				</g>
			</g>
			<g id="g3206" transform="matrix(0.781983,0,0,0.781983,37.998569,-13.727065)">
				<path id="path1059" style="fill:#FFFFFF;stroke:#FFFFFF;stroke-width:0.961;" d="
					M121.194,689.604l26.634-28.328l0,0l0,0"/>

				<text transform="matrix(-0.9415 -0.866 0.9378 -0.8694 174.2287 662.7457)" style="fill:#FFFFFF; font-family:'Arial-BoldMT'; font-size:15.0507;">SW</text>
			</g>
			<g id="g1109" transform="matrix(0.781983,0,0,0.781983,-139.56411,-47.793995)">
					<path id="path1043" style="fill:#0081F6;stroke:#FFFFFF;stroke-width:1.125;stroke-opacity:0.7216;" d="
					M814.099,539.631c0,16.812-13.628,30.439-30.44,30.439c-16.812,0-30.44-13.627-30.44-30.439
					c0-16.809,13.629-30.438,30.44-30.438C800.471,509.193,814.099,522.821,814.099,539.631z"/>

					<text transform="matrix(1.3848 0 0 1.2788 772.432 550.4031)" style="fill:#FFFFFF; font-family:'Arial-BoldMT'; font-size:23.1082;">E</text>
				<g>

						<text transform="matrix(1.3848 0 0 1.2788 772.432 550.4031)" style="fill:none;stroke:#FFFFFF;stroke-width:1.125; font-family:'Arial-BoldMT'; font-size:23.1082;">E</text>
				</g>
			</g>
			<g id="g1099" transform="matrix(0.781983,0,0,0.781983,-139.56411,-47.793995)">

					<path id="path1042" style="fill:#0081F6;stroke:#FFFFFF;stroke-width:1.125;stroke-opacity:0.7216;" d="
					M330.803,538.493c0,16.81-13.628,30.438-30.44,30.438s-30.441-13.627-30.441-30.438c0-16.81,13.63-30.439,30.441-30.439
					S330.803,521.682,330.803,538.493z"/>

					<text transform="matrix(1.3848 0 0 1.2788 280.5341 550.6104)" style="fill:#FFFFFF; font-family:'Arial-BoldMT'; font-size:25.9967;">W</text>
				<g>

						<text transform="matrix(1.3848 0 0 1.2788 280.5341 550.6104)" style="fill:none;stroke:#FFFFFF;stroke-width:1.125; font-family:'Arial-BoldMT'; font-size:25.9967;">W</text>
				</g>
			</g>
			<g id="g1886" transform="matrix(0.781983,0,0,0.781983,395.67899,-51.234295)">
				<path id="path1057" style="fill:#FFFFFF;stroke:#FFFFFF;stroke-width:0.961;" d="
					M-335.129,347.158l27.704,27.286l0,0l0,0"/>

					<text transform="matrix(0.8541 -0.9296 1.0066 0.7887 -306.4868 399.6025)" style="fill:#FFFFFF; font-family:'Arial-BoldMT'; font-size:15.1501;">NW</text>
			</g>
			<g id="g1891" transform="matrix(0.781983,0,0,0.781983,394.13379,-51.325195)">
				<path id="path1060" style="fill:#FFFFFF;stroke:#FFFFFF;stroke-width:0.961;" d="
					M26.702,376.103l27.362-27.628l0,0l0,0"/>

					<text transform="matrix(0.9427 0.8651 -0.9368 0.8705 4.1159 379.6494)" style="fill:#FFFFFF; font-family:'Arial-BoldMT'; font-size:15.0493;">NE</text>
			</g>
			<g id="g1094" transform="matrix(0.781983,0,0,0.781983,-139.56411,-47.793995)">

					<path id="path1802" style="fill:#0081F6;stroke:#FFFFFF;stroke-width:1.125;stroke-opacity:0.7217;" d="
					M574.493,297.302c0,16.81-13.628,30.438-30.44,30.438s-30.44-13.628-30.44-30.438c0-16.811,13.628-30.439,30.44-30.439
					S574.493,280.491,574.493,297.302z"/>

					<text transform="matrix(1.3848 0 0 1.2788 530.662 308.0742)" style="fill:#FFFFFF; font-family:'Arial-BoldMT'; font-size:23.1082;">N</text>
				<g>

						<text transform="matrix(1.3848 0 0 1.2788 530.662 308.0742)" style="fill:none;stroke:#FFFFFF;stroke-width:1.125; font-family:'Arial-BoldMT'; font-size:23.1082;">N</text>
				</g>
			</g>
		</g>
	</g>
	<g>
		<path id="path3202" style="fill:#FFFFFF;stroke:#FFFFFF;stroke-width:0.5181;" d="
			M142.582,229.006l-13.731-3.844l10.195-9.97L142.582,229.006z"/>
		<path id="path3203" style="fill:#FFFFFF;stroke:#FFFFFF;stroke-width:0.5181;" d="
			M441.4,226.562l-13.795,3.611l3.771-13.751L441.4,226.562z"/>
		<path id="path3204" style="fill:#FFFFFF;stroke:#FFFFFF;stroke-width:0.5181;" d="
			M441.738,520.061l-10.01,10.154l-3.789-13.746L441.738,520.061z"/>
		<path id="path3205" style="fill:#FFFFFF;stroke:#FFFFFF;stroke-width:0.5181;" d="
			M137.779,530.084l-10.159-10.006l13.744-3.797L137.779,530.084z"/>
	</g>
</g>
</svg>
