<svg version="1.1" xmlns="http://www.w3.org/2000/svg" viewBox="54.985 146.65 458.458 455.434">
<g>
	<path id="path2335" style="fill:#1C1C1C;" d="M282.49,188.551l1.429,184.168l13.839-0.106
		L282.49,188.551"/>
	<path id="path2336" style="fill:#383838;" d="M282.49,188.551l1.429,184.168l-13.84,0.108
		L282.49,188.551"/>
	<path id="path2341" style="fill:#D8D8D8;" d="M285.347,556.889l-1.429-184.17l13.839-0.106
		L285.347,556.889"/>
	<path id="path2342" style="fill:#C4C4C4;" d="M285.347,556.889l-1.429-184.17l-13.84,0.108
		L285.347,556.889"/>
	<path id="path2345" style="fill:#FFFFFF;stroke:#FFFFFF;stroke-miterlimit:10;" d="
		M297.363,373.633c0.062,7.315-5.814,13.295-13.128,13.359c-7.314,0.063-13.294-5.815-13.358-13.128c0-0.009,0-0.017,0-0.024
		c-0.064-7.314,5.814-13.295,13.127-13.359c7.313-0.062,13.295,5.815,13.357,13.128
		C297.363,373.618,297.363,373.625,297.363,373.633z"/>
	<path id="path2348" style="stroke:#000000;stroke-miterlimit:10;" d="M287.218,373.713
		c0.017,1.71-1.358,3.11-3.071,3.126c-1.711,0.015-3.11-1.359-3.126-3.07c0-0.003,0-0.006,0-0.009
		c-0.015-1.711,1.359-3.11,3.071-3.126s3.111,1.359,3.126,3.07C287.218,373.707,287.219,373.709,287.218,373.713z"/>
</g>
</svg>