<svg version="1.1" xmlns="http://www.w3.org/2000/svg" viewBox="54.985 146.65 458.458 455.434">
<g>
	<path id="path2335_1_" fill="#1C1C1C" d="M370.135,246.932l0.488,62.893l4.727-0.036
		L370.135,246.932"/>
	<path id="path2336_1_" fill="#383838" d="M370.135,246.932l0.488,62.893l-4.727,0.037
		L370.135,246.932"/>
	<path id="path2341_1_" fill="#D8D8D8" d="M371.111,372.718l-0.488-62.894l4.727-0.036
		L371.111,372.718"/>
	<path id="path2342_1_" fill="#C4C4C4" d="M371.111,372.718l-0.488-62.894l-4.727,0.037
		L371.111,372.718"/>
	<path id="path2345_1_" fill="#FFFFFF" stroke="#FFFFFF" stroke-miterlimit="10" d="
		M375.215,310.137c0.021,2.498-1.986,4.54-4.483,4.562c-2.498,0.022-4.54-1.985-4.562-4.482c0-0.003,0-0.006,0-0.009
		c-0.021-2.498,1.984-4.54,4.482-4.562s4.541,1.985,4.562,4.482C375.215,310.131,375.215,310.134,375.215,310.137z"/>
	<path id="path2348_1_" stroke="#000000" stroke-miterlimit="10" d="M371.75,310.165
		c0.006,0.584-0.465,1.062-1.049,1.067c-0.584,0.005-1.062-0.464-1.068-1.049c0-0.001,0-0.002,0-0.003
		c-0.004-0.584,0.465-1.062,1.049-1.067c0.586-0.005,1.062,0.464,1.068,1.049C371.75,310.162,371.75,310.163,371.75,310.165z"/>
</g>
</svg>
